<svg xmlns="http://www.w3.org/2000/svg" width="1796.722" height="1581.292" viewBox="0 0 1796.722 1581.292">
  <g id="Group_31" data-name="Group 31" transform="translate(-908.22 322.249) rotate(-14)">
    <g id="Group_25" data-name="Group 25" transform="matrix(0.966, 0.259, -0.259, 0.966, 1433.006, 545.502)">
      <g id="Group_23" data-name="Group 23" transform="translate(0 0)">
        <path id="Path_12" data-name="Path 12" d="M563.733,449.178c-12.337,27.965-52.3,34.558-73.4,13.362a66.589,66.589,0,0,1-5.073-5.755c9.683-44.122,4.893-93.859-1.969-135.372-3.62-21.907-38.868-25.638-44.821-3.169-12.211,46.085-22.547,101.164-3.326,144.945a73.71,73.71,0,0,1-10.085,20.276c-10.461,14.474-25.678,16.356-38.819,3.6-19.347-18.782-17.658-51.415-18.4-76.2q-1.376-46.25-2.758-92.493c-.722-24.19-.661-53.425-22.97-68.912-24.924-17.305-53.453-4.068-71.14,16.592-11.827,13.81-20.692,31.054-28.026,48.569q.253-18.688.644-37.365c.8-36.981,2.583-74.038,6.661-110.76,12.217-12.342,23.622-25.538,34.707-38.88,12.127-14.6,24.225-30.609,28.966-49.332C323.955,38.693,296.6-5.9,252.428.643c-7.84,1.162-14.876,7.726-17.378,15.086C220.791,57.7,211.768,100.889,206.057,144.6a190.756,190.756,0,0,1-16.9,13.31C141.065,191.373,79.166,185.26,24.079,179.438c-29.846-3.151-33.09,43.333-3.285,46.481,39.835,4.211,80.53,7.494,120.26.42a189.968,189.968,0,0,0,59.036-21.08c-1.447,21.062-2.333,42.168-2.851,63.245-2.176,88.678-1.171,177.5-1.346,266.2-.061,29.75,43.572,33.428,46.481,3.282,5.571-57.743,12.334-115.883,30.8-171.153,7.939-23.762,17.363-54.953,35.411-73.258,1.185-1.2,4.226-4.418,6.725-5.417-.425.623.923,2.187,1.643,5.05,3.081,12.267,1.779,26.182,2.152,38.7.938,31.459,1.491,62.962,2.857,94.407,1.276,29.368,4.741,58.591,22.341,83.119,31.981,44.574,93.906,42.2,122.211-4.293.239-.387.454-.789.684-1.18.512.393.984.807,1.506,1.194C516.049,540.53,584.839,516.482,607.68,464.7,619.8,437.217,575.766,421.9,563.733,449.178ZM269.593,64.365a38.087,38.087,0,0,1-2.91,8.836c1.014-4.019,2.036-8.035,3.137-12.034A15.848,15.848,0,0,1,269.593,64.365Z" fill="#eb634e"/>
        <path id="Path_13" data-name="Path 13" d="M27.032.009C14.4-.318,3.069,8.577,2.149,21.607L.052,51.263C-.807,63.419,9.06,75.82,21.653,76.146c12.631.323,23.96-8.571,24.883-21.6L48.63,24.892C49.49,12.733,39.623.332,27.032.009Z" transform="translate(436.859 167.291)" fill="#eb634e"/>
      </g>
      <g id="Group_24" data-name="Group 24" transform="translate(673.599 146.159)">
        <path id="Path_14" data-name="Path 14" d="M46.929,268.024a1829.137,1829.137,0,0,1,9.986-243.03C60.134-4.82,13.8-9.791,10.577,20.066A1829.165,1829.165,0,0,0,.594,263.1c.32,12.576,7.01,24.176,20.7,25.632C32.542,289.925,47.253,280.693,46.929,268.024Z" transform="translate(0 0)" fill="#eb634e"/>
        <path id="Path_15" data-name="Path 15" d="M25,.155C-4.82-3.013-9.794,43.319,20.072,46.494,49.886,49.662,54.863,3.333,25,.155Z" transform="translate(2.21 340.66)" fill="#eb634e"/>
      </g>
    </g>
    <g id="Group_26" data-name="Group 26" transform="translate(869 268.817)">
      <path id="Path_16" data-name="Path 16" d="M584.766,1673.647c-39.418,4.572-79.127,5.615-118.772,4.427-24.766-.739-49.671-3.445-74.458-3.018-11.446.2-23.507,1.7-32.011,10.243-13.222,13.271-9.67,33.663,3.5,45.287,8.984,7.93,19.464,14.188,29.754,20.224,15.954,9.361,32.232,18.184,48.489,27.006,25.764,13.973,51.609,27.792,77.427,41.664,26.844,14.427,54.5,27.908,80.294,44.18q12.092,7.628,23.572,16.175c1.6,1.183,3.175,2.4,4.768,3.591,3.887,2.91-5.48-4.331-1.685-1.3.935.745,1.885,1.479,2.819,2.224q5.628,4.471,11.116,9.124c14.507,12.279,28.3,25.387,41.6,38.949,55.324,56.371,102.781,119.981,159.9,174.668,64.55,61.8,141.254,109.729,229.522,128.3,107.586,22.644,218.217,5.021,323.26-22.239,78.766-20.439,156.307-49.065,227.115-89.482,56.857-32.458,110.064-73.216,153.164-122.7a482.045,482.045,0,0,0,90.488-152.905c18.594-51.382,27.449-106.522,27.762-161.105.319-55.734-8.3-111.819-23.739-165.318-15.885-55.039-39.057-108.25-67.6-157.883A793.211,793.211,0,0,0,1697.328,1222.8,765.738,765.738,0,0,0,1565.2,1108.663a658.056,658.056,0,0,0-152.792-77.406,545.36,545.36,0,0,0-165.722-30.77,494.986,494.986,0,0,0-170.457,25.689c-62.715,21.218-119.782,54.238-171.607,95.173-59.961,47.366-110.663,105.486-154.611,167.763-55.2,78.243-98.613,163.974-135.461,252.171-20.835,49.876-39.251,100.735-55.82,152.181-4.33,13.45,5.059,30.063,18.859,33.2,14.777,3.37,28.566-4.453,33.2-18.853q13.274-41.2,28.2-81.833c9.211-24.966,19.852-49.358,29.252-74.231-3.034,8.023.524-1.209,1.209-2.819q1.96-4.582,3.958-9.162,3.936-9.054,7.985-18.048,7.588-16.86,15.586-33.533,15.3-31.877,32.211-62.947A1113.393,1113.393,0,0,1,797.4,1315.282q8.868-12.543,18.141-24.792c1.42-1.868,2.948-3.687,4.286-5.608-5.528,7.942-.173.243,1.253-1.577q4.672-5.945,9.438-11.8,17.663-21.7,36.767-42.167a686.841,686.841,0,0,1,75.937-70.137c1.884-1.485,8.676-6.479.426-.369,1.42-1.051,2.808-2.148,4.217-3.211q5.036-3.807,10.15-7.5,9.637-6.966,19.55-13.536,19.226-12.73,39.472-23.837,19.915-10.89,40.73-20.019c1.448-.636,2.9-1.252,4.352-1.878,3.969-1.717-6.965,2.888-2.964,1.252q1.3-.541,2.613-1.085,5.208-2.139,10.464-4.158,9.977-3.823,20.105-7.213a471.874,471.874,0,0,1,80.672-19.285c1.749-.259,3.509-.48,5.259-.745-10.722,1.641-4.427.594-1.917.28q5.256-.656,10.518-1.181,10.05-1.021,20.133-1.6,20.035-1.158,40.119-.62,20.393.541,40.693,2.785c3.158.351,6.312.745,9.469,1.134,5.853.729-7.861-1.123-2.024-.265,2,.292,4,.573,6,.875q9.856,1.506,19.647,3.385a544.47,544.47,0,0,1,77.146,20.91q9.492,3.33,18.859,6.981,4.494,1.748,8.952,3.574c1.625.664,3.239,1.345,4.864,2.014,3.855,1.587-7.04-3.023-3.218-1.355.8.351,1.615.691,2.419,1.037q18.6,8.026,36.643,17.266a661.259,661.259,0,0,1,71.008,42.2c11.371,7.742,22.335,15.981,33.372,24.188-9.119-6.782.771.626,3.034,2.417q4.228,3.362,8.4,6.782,8.017,6.567,15.845,13.356a752.884,752.884,0,0,1,59.686,57.868q14.448,15.629,28.01,32.048,6.633,8.026,13.044,16.235c1.425,1.823,5.377,7.095-.9-1.177,1.1,1.44,2.2,2.871,3.3,4.313q3.281,4.326,6.5,8.693a735.153,735.153,0,0,1,82.653,142.938c.648,1.49,1.285,2.98,1.927,4.476,2.278,5.286-3.056-7.386-.318-.74,1.344,3.272,2.683,6.545,3.99,9.826q3.742,9.419,7.2,18.946,6.86,18.942,12.542,38.278a595.627,595.627,0,0,1,17.309,77.583c.476,3.1.9,6.22,1.345,9.33-1.733-11.964.037.572.415,3.849q1.118,9.735,1.89,19.512,1.539,19.664,1.587,39.4.04,19.622-1.479,39.2-.761,9.652-1.906,19.269c-.168,1.392-.346,2.785-.519,4.178-.7,5.7,1.193-8.379.178-1.338-.486,3.331-.983,6.662-1.528,9.983a445.277,445.277,0,0,1-19.156,75.256q-3.248,9.264-6.916,18.374c-.643,1.592-1.307,3.169-1.949,4.762-1.091,2.706,3.19-7.392.713-1.707-1.377,3.159-2.759,6.313-4.195,9.444q-8.447,18.406-18.583,35.978-10.35,17.946-22.341,34.884-2.884,4.063-5.852,8.071-1.352,1.838-2.732,3.65c-.551.729-1.106,1.453-1.657,2.182-2.505,3.3,5-6.388,1.414-1.841-4.389,5.576-8.865,11.079-13.486,16.466a512.57,512.57,0,0,1-63.876,62.279q-4.333,3.555-8.73,7.023c-1.89,1.5-8.5,6.361-.211.2-1.663,1.236-3.293,2.516-4.945,3.764q-9.662,7.255-19.615,14.128-20.911,14.432-42.922,27.174-23.2,13.467-47.382,25.18-12.455,6.058-25.122,11.673c-4.125,1.831-8.265,3.607-12.412,5.394-4.584,1.971,6.495-2.695,1.868-.793-.766.318-1.533.643-2.3.961q-4.057,1.677-8.131,3.32a1010.288,1010.288,0,0,1-116.845,38.646q-32.572,8.707-65.593,15.6-17.274,3.628-34.64,6.8-11.637,2.13-23.334,3.94c-3.7.568-7.429,1.259-11.159,1.622,7.418-.73.545-.082-.832.1-2.311.291-4.616.567-6.932.836a594.3,594.3,0,0,1-85.78,4.012q-19.226-.56-38.36-2.6c-2.672-.286-5.34-.621-8.007-.934-5.874-.7,6.679.973.852.125-1.56-.229-3.125-.449-4.691-.687q-9.216-1.392-18.373-3.18a404.646,404.646,0,0,1-64.864-18.309q-3.944-1.479-7.855-3.043c-2.1-.842-9.74-4.234-1.28-.471-5.037-2.241-10.09-4.41-15.074-6.775q-14.043-6.674-27.556-14.41a491.908,491.908,0,0,1-50.459-33.668c-4.092-3.066,5.329,4.212,1.334,1.031-1.015-.816-2.046-1.608-3.067-2.419q-2.551-2.024-5.075-4.077-6.05-4.915-11.954-10-11.524-9.913-22.562-20.38c-28.766-27.2-55.184-56.728-81.185-86.54C750.5,1927.179,700.4,1866.9,635.717,1823.227c-22.061-14.9-45.973-26.806-69.377-39.4q-41.157-22.143-82.329-44.256c-28.453-15.35-57.883-29.97-84.511-48.414-4.2-2.9,5.944,5.076,2.932,2.278-.481-.448-1.021-.831-1.5-1.268-2.823-2.543-3.833-5.923,1.485,2.623-2.683-4.314,2.467,7.408,1.663,4.369a25.3,25.3,0,0,1-6.268,24.209c1.744-1.733-7.613,5.377-4.438,3.558,2.025-1.166-8.7,2.673-5.237,2.257,5.313-.637-.345.108-3.488.254,3.385-.157,6.722-.422,10.123-.4,25.548.124,51.09,2.536,76.638,3.179,37.842.952,75.737-.209,113.357-4.578,13.978-1.618,27.7-11.251,27-26.994-.594-13.228-11.975-28.739-27-27Z" transform="translate(-351.204 -1000.328)" fill="#eb634e"/>
    </g>
  </g>
</svg>
