<svg xmlns="http://www.w3.org/2000/svg" xmlns:xlink="http://www.w3.org/1999/xlink" width="156.951" height="103.369" viewBox="0 0 156.951 103.369">
  <defs>
    <clipPath id="clip-path">
      <path id="Path_11" data-name="Path 11" d="M0,54.565H156.951V-48.8H0Z" transform="translate(0 48.804)" fill="#eb634e"/>
    </clipPath>
  </defs>
  <g id="Group_13" data-name="Group 13" transform="translate(0 48.804)">
    <g id="Group_12" data-name="Group 12" transform="translate(0 -48.804)" clip-path="url(#clip-path)">
      <g id="Group_11" data-name="Group 11" transform="translate(0 0.001)">
        <path id="Path_10" data-name="Path 10" d="M51.046,10.2c-1.932,1.307-3.872,2.675-5.795,4.1C37.95,4.832,27.462-1.173,14.648-.163,3.706.7-6.533,6.028-15.09,13.672A166.478,166.478,0,0,0-33.235-7.053c-6.82-6.619-17,4.177-10.15,10.825A141.081,141.081,0,0,1-25.233,24.8a77.379,77.379,0,0,0-8.525,14.526c-7.284,16.353-10.315,41.588,7.3,51.847C-8.3,101.747,6,83.091,5.216,64.569,4.653,51.232-.022,38.312-6.74,26.493c12.761-11.622,30-14.581,40.508-2.523-9.845,9.646-17.2,21.572-16.834,36.839C17.287,75.314,28.087,94.257,44,90.758,63.324,86.51,58.19,49.766,55.174,36.1a60.517,60.517,0,0,0-2.641-8.695c13.339-9.881,29.485-17.2,38.775,2.359,7.341,15.46,7.47,34.874,4.564,51.43-1.69,9.629,12.143,13.757,13.841,4.071,7.208-41.077-9.883-108.075-58.668-75.07M-25.36,65.49c-2.182-8.284,2.207-18.075,8.239-26.757a87.29,87.29,0,0,1,5.346,13.541q.756,2.777,1.514,5.553c4.2,17.98-10.2,22.659-15.1,7.663M42.3,67.2c-1.106,4.679-5.814,6.072-8.606,2.925-.034-.036-.066-.074-.1-.114-5.318-5.494-1.385-18.721.82-23.4a36.067,36.067,0,0,1,6.3-8.925A72.671,72.671,0,0,1,43.3,55.154,57,57,0,0,1,42.3,67.2" transform="translate(45.657 9.122)" fill="#eb634e"/>
      </g>
    </g>
  </g>
</svg>
