<svg xmlns="http://www.w3.org/2000/svg" width="62.3" height="62.286" viewBox="0 0 62.3 62.286">
  <path id="Icon_awesome-instagram" data-name="Icon awesome-instagram" d="M31.152,17.411A15.969,15.969,0,1,0,47.121,33.381,15.944,15.944,0,0,0,31.152,17.411Zm0,26.352A10.382,10.382,0,1,1,41.534,33.381,10.4,10.4,0,0,1,31.152,43.763Zm20.347-27a3.725,3.725,0,1,1-3.725-3.725A3.716,3.716,0,0,1,51.5,16.758Zm10.577,3.78c-.236-4.99-1.376-9.409-5.031-13.051S48.984,2.707,43.994,2.457c-5.142-.292-20.556-.292-25.7,0C13.32,2.693,8.9,3.833,5.245,7.474S.464,15.535.214,20.525c-.292,5.142-.292,20.556,0,25.7.236,4.99,1.376,9.409,5.031,13.051S13.306,64.055,18.3,64.3c5.142.292,20.556.292,25.7,0,4.99-.236,9.409-1.376,13.051-5.031s4.781-8.061,5.031-13.051c.292-5.142.292-20.542,0-25.684Zm-6.643,31.2a10.511,10.511,0,0,1-5.921,5.921c-4.1,1.626-13.829,1.251-18.36,1.251s-14.274.361-18.36-1.251a10.511,10.511,0,0,1-5.921-5.921c-1.626-4.1-1.251-13.829-1.251-18.36s-.361-14.274,1.251-18.36A10.511,10.511,0,0,1,12.792,9.1c4.1-1.626,13.829-1.251,18.36-1.251S45.426,7.488,49.512,9.1a10.511,10.511,0,0,1,5.921,5.921c1.626,4.1,1.251,13.829,1.251,18.36S57.059,47.655,55.432,51.741Z" transform="translate(0.005 -2.238)" fill="#eb634e"/>
</svg>
