<svg xmlns="http://www.w3.org/2000/svg" width="59.6" height="59.6" viewBox="0 0 59.6 59.6">
  <path id="Icon_awesome-linkedin" data-name="Icon awesome-linkedin" d="M55.343,2.25H4.244A4.276,4.276,0,0,0,0,6.547V57.553a4.276,4.276,0,0,0,4.244,4.3h51.1a4.287,4.287,0,0,0,4.257-4.3V6.547A4.287,4.287,0,0,0,55.343,2.25ZM18.013,53.336H9.179V24.893h8.847V53.336ZM13.6,21.008a5.122,5.122,0,1,1,5.122-5.122A5.124,5.124,0,0,1,13.6,21.008ZM51.126,53.336H42.292V39.5c0-3.3-.067-7.543-4.59-7.543-4.6,0-5.308,3.592-5.308,7.3V53.336H23.561V24.893h8.474v3.885h.12a9.3,9.3,0,0,1,8.368-4.59c8.94,0,10.6,5.893,10.6,13.556Z" transform="translate(0 -2.25)" fill="#eb634e"/>
</svg>
